# xmcd
#
# Track frame offsets: 
#        150
#        12034
#        26588
#        41476
#        61087
#        74010
#        87331
#        98706
#        112929
#        125729
#        137355
#        150694
#        166277
#        179985
#        197842
#        209159
#        224018
#        236310
#        254783
#
# Disc length: 3613 seconds
#
# Revision: 4
# Processed by: cddbd v1.5.2PL0 Copyright (c) Steve Scherf et al.
# Submitted via: ExactAudioCopyFreeDBPlugin 1.0
#
DISCID=1b0e1b13
DTITLE=Various Artist - Boot Scootin' Boogie
DYEAR=1997
DGENRE=Country
TTITLE0=Alan Jackson - Little Bitty
TTITLE1=Carlene Carter - Every Little Thing
TTITLE2=Brooks and Dunn - Boot Scootin' Boogie
TTITLE3=The Mavericks - All You Ever Do Is Bring Me Down
TTITLE4=Pam Tillis - Mi Vida Loca (My Crazy Life)
TTITLE5=Ty England - It Starts With 'L'
TTITLE6=BR5-49 - Cherokee Boogie
TTITLE7=Tammy Graham - Dancin' With Elvis
TTITLE8=Lee Roy Parnell - Every Night's A Saturday Night
TTITLE9=The Woolpackers - Hillbilly Rock Hillbilly Roll
TTITLE10=Blackhawk - Big Guitar
TTITLE11=Sherrie Austin - Lucky In Love
TTITLE12=Deborah Allen - Blame It On Your Heart
TTITLE13=The Tractors - Baby Likes To Rock It
TTITLE14=George Strait - She Lays It All On The Line
TTITLE15=Martina McBride - Two More Bottles Of Wine
TTITLE16=The Kentucky Headhunters - Singin' The Blues
TTITLE17=Jill Morris - Wild Horse Saloon
TTITLE18=Marty Stuart (feat. The Staple Singers) - The Weight
EXTD=
EXTT0=
EXTT1=
EXTT2=
EXTT3=
EXTT4=
EXTT5=
EXTT6=
EXTT7=
EXTT8=
EXTT9=
EXTT10=
EXTT11=
EXTT12=
EXTT13=
EXTT14=
EXTT15=
EXTT16=
EXTT17=
EXTT18=
PLAYORDER=
